<svg xmlns="http://www.w3.org/2000/svg" viewBox="0 0 504 504" width="504" height="504">
	<style>
		tspan { white-space:pre }
		.shp0 { fill: #e44200 } 
		.shp1 { fill: #e04e1d } 
	</style>
	<g id="Layer">
		<g id="Layer">
			<g id="Layer">
				<path id="Layer" fill-rule="evenodd" class="shp0" d="M503.61 100.72L503.61 268.59C503.61 282.86 492.69 293.77 478.43 293.77L25.18 293.77C10.91 293.77 0 282.86 0 268.59L0 100.72C0 86.45 10.91 75.54 25.18 75.54L478.43 75.54C492.69 75.54 503.61 86.45 503.61 100.72ZM486.82 268.59L486.82 100.72C486.82 95.69 483.46 92.33 478.43 92.33L25.18 92.33C20.98 92.33 16.79 95.69 16.79 100.72L16.79 268.59C16.79 273.63 20.14 276.98 25.18 276.98L478.43 276.98C483.46 276.98 486.82 273.63 486.82 268.59L486.82 268.59Z" />
				<path id="Layer" class="shp0" d="M218.23 151.08L285.38 151.08C290.41 151.08 293.77 147.72 293.77 142.69C293.77 137.65 290.41 134.3 285.38 134.3L218.23 134.3C213.19 134.3 209.84 137.65 209.84 142.69C209.84 147.72 213.19 151.08 218.23 151.08Z" />
				<path id="Layer" class="shp0" d="M461.64 243.41L41.97 243.41C36.93 243.41 33.57 246.77 33.57 251.8C33.57 256.84 36.93 260.2 41.97 260.2L461.64 260.2C466.68 260.2 470.03 256.84 470.03 251.8C470.03 246.77 466.68 243.41 461.64 243.41Z" />
				<path id="Layer" class="shp0" d="M461.64 209.84L41.97 209.84C36.93 209.84 33.57 213.19 33.57 218.23C33.57 223.27 36.93 226.62 41.97 226.62L461.64 226.62C466.68 226.62 470.03 223.27 470.03 218.23C470.03 213.19 466.68 209.84 461.64 209.84Z" />
				<path id="Layer" class="shp0" d="M256 353.36C247.61 349.17 243.41 344.13 243.41 339.93C243.41 335.74 248.45 330.7 255.16 325.66C259.36 323.99 260.2 318.95 258.52 314.75C256.84 310.56 251.8 308.88 247.61 311.4C234.18 318.95 226.62 329.02 226.62 339.93C226.62 350.85 234.18 360.92 247.61 369.31C256 373.51 260.2 378.54 260.2 382.74C260.2 386.94 255.16 391.97 247.61 396.17C243.41 397.85 241.73 402.89 244.25 407.08C245.93 409.6 248.45 411.28 251.8 411.28C253.48 411.28 254.32 411.28 256 410.44C269.43 402.89 276.99 392.81 276.99 381.9C276.99 370.99 269.43 360.08 256 353.36Z" />
				<path id="Layer" class="shp0" d="M163.67 370.15C155.28 365.95 151.08 360.92 151.08 356.72C151.08 352.52 156.12 347.49 162.83 342.45C167.03 340.77 168.71 335.74 166.19 331.54C164.51 327.34 159.47 325.67 155.28 328.18C141.85 335.74 134.29 345.81 134.29 356.72C134.29 367.63 141.85 377.71 155.28 386.1C163.67 390.3 167.87 395.33 167.87 399.53C167.87 403.73 162.83 408.76 155.28 412.96C151.08 414.64 149.4 419.67 151.92 423.87C153.6 426.39 156.12 428.07 159.48 428.07C161.16 428.07 161.99 428.07 163.67 427.23C177.1 419.67 184.66 409.6 184.66 398.69C184.66 387.78 177.1 376.87 163.67 370.15Z" />
				<path id="Layer" class="shp1" d="M348.33 370.15C339.93 365.95 335.74 360.92 335.74 356.72C335.74 352.52 340.77 347.49 347.49 342.45C351.69 340.77 352.52 335.74 350.85 331.54C349.17 327.34 344.13 325.67 339.94 328.18C326.5 335.74 318.95 345.81 318.95 356.72C318.95 367.63 326.5 377.71 339.94 386.1C348.33 390.3 352.52 395.33 352.52 399.53C352.52 403.73 347.49 408.76 339.94 412.96C335.74 414.64 334.06 419.67 336.58 423.87C338.26 426.39 340.77 428.07 344.13 428.07C345.81 428.07 346.65 428.07 348.33 427.23C361.76 419.67 369.31 409.6 369.31 398.69C369.31 387.78 361.76 376.87 348.33 370.15Z" />
			</g>
		</g>
	</g>
	<g id="Layer">
	</g>
	<g id="Layer">
	</g>
	<g id="Layer">
	</g>
	<g id="Layer">
	</g>
	<g id="Layer">
	</g>
	<g id="Layer">
	</g>
	<g id="Layer">
	</g>
	<g id="Layer">
	</g>
	<g id="Layer">
	</g>
	<g id="Layer">
	</g>
	<g id="Layer">
	</g>
	<g id="Layer">
	</g>
	<g id="Layer">
	</g>
	<g id="Layer">
	</g>
	<g id="Layer">
	</g>
</svg>