<svg xmlns="http://www.w3.org/2000/svg" viewBox="0 0 502 425" width="502" height="425">
	<style>
		tspan { white-space:pre }
		.shp0 { fill: #e04e1d } 
	</style>
	<g id="Page-1">
		<g id="008---Coffee-and-Croissant">
			<path id="Shape" fill-rule="evenodd" class="shp0" d="M481.42 358.33C486.23 357.92 491 359.45 494.68 362.58C498.36 365.71 500.63 370.18 501 375L501 391.67C501 410.36 482.52 425 458.92 425L76.42 425C52.82 425 34.33 410.36 34.33 391.67L34.33 375C34.7 370.18 36.97 365.71 40.65 362.58C44.33 359.45 49.1 357.92 53.92 358.33L123.19 358.33C107.25 347.12 95.33 331.09 89.17 312.6C79.93 315.25 70.37 316.61 60.75 316.67C24.45 316.67 1 285.49 1 237.25C1 215.67 1 150 60.75 150C68.71 150 76.63 151.01 84.33 153.02L84.33 141.67C84.33 132.46 91.8 125 101 125L301 125C310.2 125 317.67 132.46 317.67 141.67L317.67 237.11C319.8 238.06 321.99 238.88 324.22 239.56C325.79 235.75 327.58 232.03 329.56 228.42C331.32 225.27 334.12 222.84 337.48 221.54L380.27 205.19C383.71 203.89 387.51 203.87 390.96 205.15C394.59 206.57 398.13 208.2 401.57 210.03C404.46 205.79 406.77 201.18 408.43 196.32C411.03 188.52 417.49 182.63 425.5 180.76C425.75 176.79 425.87 172.82 425.87 168.92C425.94 152.67 426.02 134.22 446.65 126.37C451.89 124.28 457.79 124.7 462.68 127.5C466.53 129.64 477.91 136.12 486.36 176.67C493.79 179.24 499.08 185.86 499.93 193.67C502.04 212.13 501.16 230.81 497.33 248.99C492.8 265.77 485.43 281.65 475.54 295.93C476.31 297.57 476.99 299.07 477.54 300.32C479.63 305.03 479.29 310.47 476.63 314.88C464.17 334.14 446.27 349.26 425.21 358.33L481.42 358.33ZM442.57 168.93C442.56 171.76 442.53 174.79 442.42 177.9C453 176.53 462.08 175.92 469.09 175.62C462.8 148.03 455.96 142.77 454.53 141.98C453.95 141.59 453.19 141.55 452.57 141.88C443.45 145.36 442.61 151.67 442.57 168.93ZM424.33 201.37C422.26 207.51 419.38 213.36 415.77 218.75C436.73 235 454.07 255.43 466.69 278.75C473.14 268.28 478.02 256.92 481.17 245.02C484.56 228.67 485.3 211.89 483.38 195.3C483.09 193.28 481.29 191.83 479.26 191.97L478.71 191.97C463.95 192.08 449.23 193.37 434.67 195.82C432.98 196.12 431.46 196.34 429.92 196.66C427.33 197.08 425.18 198.89 424.33 201.37ZM343.88 236.87C323.14 274.52 330.07 326.4 334.03 347.04C334.67 350.41 335.32 353.21 335.79 355.25C341.34 357.03 347.09 358.07 352.91 358.33L363.9 358.33C377.92 357.32 391.7 354.19 404.78 349.04C442.92 334.49 457.75 314.38 462.36 306.42C457.36 295.68 430.3 238.46 385.69 220.92L343.92 236.87L343.88 236.87ZM278.5 358.33L319.39 358.33C319.18 357.4 318.95 356.41 318.7 355.24C309.92 352.73 301.37 349.46 293.16 345.47C288.74 350.27 283.83 354.58 278.5 358.33ZM315.43 336.67C311.13 309.57 312.26 281.88 318.77 255.22C312.84 253.47 307.19 250.91 301.97 247.6C299.98 246.42 297.49 246.48 295.55 247.74C293.94 248.67 292.62 249.57 291.29 250.4C278.42 258.42 266.19 267.43 254.7 277.32C254.61 277.42 254.5 277.52 254.39 277.62C252.53 279.05 251.9 281.58 252.89 283.71C261.17 297.63 271.74 310.06 284.17 320.46C293.66 327.49 304.22 332.96 315.43 336.67ZM102.94 300.17C110.64 334.29 141.02 358.48 176 358.33L226 358.33C245.63 358.36 264.48 350.63 278.43 336.82C276.92 335.78 275.42 334.76 273.96 333.63C259.96 322.01 248.04 308.09 238.72 292.47C234.59 285.6 234.74 276.99 239.09 270.26C227.21 245.49 223.42 227.86 227.77 216.67C229.74 211.39 233.91 207.24 239.19 205.29C260.26 197.27 271.98 212.36 281.42 224.46C283.63 227.29 285.95 230.12 288.36 232.87C292.24 230.84 296.63 229.97 301 230.37L301 141.67L101 141.67L101 283.33C100.99 289.01 101.64 294.67 102.94 300.2L102.94 300.17ZM17.67 237.27C17.67 237.27 17.67 237.26 17.67 237.26C17.67 237.26 17.67 237.25 17.67 237.25L17.67 237.27ZM17.67 237.26C17.67 276.55 33.78 300 60.75 300C69.09 299.94 77.38 298.7 85.38 296.34C84.72 292.04 84.37 287.69 84.33 283.33L84.33 279.17C76.75 281.84 68.79 283.25 60.75 283.33C44.21 283.33 34.33 266.11 34.33 237.25C34.33 208.84 36.35 183.33 60.75 183.33C68.88 183.23 76.93 184.91 84.33 188.25L84.33 170.34C76.72 167.87 68.76 166.63 60.75 166.67C22.57 166.67 17.67 204.38 17.67 237.26ZM84.33 207.71C77.65 202.39 69.28 199.65 60.75 200C56.63 200 51 200 51 237.25C51 251.51 54.42 266.67 60.75 266.67C68.89 266.55 76.91 264.77 84.33 261.44L84.33 207.71ZM251.77 258.11C257.42 253.56 264.89 247.91 273.97 241.82C271.94 239.39 270.05 236.97 268.28 234.72C257.99 221.52 253.95 217.54 245.12 220.87C244.24 221.16 243.56 221.85 243.3 222.73C241.55 227.25 243.1 238.79 251.77 258.11ZM484.33 375.76C483.45 375.23 482.44 374.97 481.42 375L53.92 375C52.89 374.97 51.88 375.23 51 375.76L51 391.67C51 400.7 62.67 408.33 76.42 408.33L458.92 408.33C472.67 408.33 484.33 400.7 484.33 391.67L484.33 375.76ZM194.49 65.62C198.66 61.49 201 55.87 201 50C201 44.13 198.66 38.51 194.49 34.37C187.9 27.32 184.26 17.99 184.33 8.33C184.33 3.73 188.06 0 192.67 0C197.27 0 201 3.73 201 8.33C200.94 14.21 203.3 19.86 207.51 23.96C221.05 38.68 221.05 61.32 207.51 76.04C203.3 80.14 200.94 85.79 201 91.67C201 96.27 197.27 100 192.67 100C188.06 100 184.33 96.27 184.33 91.67C184.26 82.01 187.9 72.68 194.49 65.62ZM144.49 65.62C148.66 61.49 151 55.87 151 50C151 44.13 148.66 38.51 144.49 34.37C137.9 27.32 134.26 17.99 134.33 8.33C134.33 3.73 138.06 0 142.67 0C147.27 0 151 3.73 151 8.33C150.94 14.21 153.3 19.86 157.51 23.96C171.05 38.68 171.05 61.32 157.51 76.04C153.3 80.14 150.94 85.79 151 91.67C151 96.27 147.27 100 142.67 100C138.06 100 134.33 96.27 134.33 91.67C134.26 82.01 137.9 72.68 144.49 65.62ZM244.49 65.62C248.66 61.49 251 55.87 251 50C251 44.13 248.66 38.51 244.49 34.37C237.9 27.32 234.26 17.99 234.33 8.33C234.33 3.73 238.06 0 242.67 0C247.27 0 251 3.73 251 8.33C250.94 14.21 253.3 19.86 257.51 23.96C271.05 38.68 271.05 61.32 257.51 76.04C253.3 80.14 250.94 85.79 251 91.67C251 96.27 247.27 100 242.67 100C238.06 100 234.33 96.27 234.33 91.67C234.26 82.01 237.9 72.68 244.49 65.62Z" />
		</g>
	</g>
</svg>