<svg xmlns="http://www.w3.org/2000/svg" viewBox="0 0 470 512" width="470" height="512">
	<style>
		tspan { white-space:pre }
		.shp0 { fill: #e04e1d } 
	</style>
	<g id="Layer">
		<g id="Layer">
			<g id="Layer">
				<path id="Layer" fill-rule="evenodd" class="shp0" d="M145.37 102.35C145.37 64.64 175.93 34.08 213.64 34.08C251.34 34.08 281.9 64.64 281.9 102.35C281.9 140.05 251.34 170.61 213.64 170.61C175.95 170.57 145.41 140.03 145.37 102.35ZM162.44 102.35C162.44 130.62 185.36 153.55 213.64 153.55C241.91 153.55 264.84 130.62 264.84 102.35C264.84 74.07 241.91 51.15 213.64 51.15C185.37 51.18 162.47 74.08 162.44 102.35Z" />
				<path id="Layer" class="shp0" d="M213.64 85.28C223.06 85.29 230.69 92.92 230.7 102.35C230.7 107.06 234.52 110.88 239.24 110.88C243.95 110.88 247.77 107.06 247.77 102.35C247.75 83.5 232.48 68.23 213.64 68.21C208.92 68.21 205.1 72.03 205.1 76.75C205.1 81.46 208.92 85.28 213.64 85.28Z" />
				<path id="Layer" class="shp0" d="M213.64 136.48C218.35 136.48 222.17 132.66 222.17 127.95C222.17 123.23 218.35 119.41 213.64 119.41C204.22 119.4 196.58 111.77 196.57 102.35C196.57 97.63 192.75 93.81 188.04 93.81C183.32 93.81 179.5 97.63 179.5 102.35C179.52 121.19 194.79 136.46 213.64 136.48Z" />
				<path id="Layer" fill-rule="evenodd" class="shp0" d="M68.57 110.88L68.57 93.81C68.58 84.39 76.22 76.76 85.64 76.75L102.7 76.75C112.13 76.76 119.76 84.39 119.77 93.81L119.77 110.88C119.76 120.3 112.13 127.93 102.7 127.95L85.64 127.95C76.22 127.93 68.58 120.3 68.57 110.88ZM85.64 110.88L102.72 110.88L102.7 93.81L85.64 93.81L85.64 110.88Z" />
				<path id="Layer" fill-rule="evenodd" class="shp0" d="M307.5 110.88L307.5 93.81C307.51 84.39 315.15 76.76 324.57 76.75L341.64 76.75C351.06 76.76 358.7 84.39 358.71 93.81L358.71 110.88C358.7 120.3 351.06 127.94 341.64 127.95L324.57 127.95C315.15 127.93 307.51 120.3 307.5 110.88ZM324.57 110.88L341.65 110.88L341.64 93.81L324.57 93.81L324.57 110.88Z" />
				<path id="Layer" fill-rule="evenodd" class="shp0" d="M469.64 213.28L469.64 230.35C469.63 244.48 458.17 255.93 444.04 255.95L392.84 255.95L392.84 460.75L418.44 460.75C420.7 460.74 422.88 461.64 424.48 463.24C426.08 464.84 426.98 467.01 426.97 469.28C426.95 492.83 407.86 511.92 384.31 511.95L42.97 511.95C19.42 511.92 0.33 492.83 0.3 469.28C0.3 467.01 1.2 464.84 2.8 463.24C4.4 461.64 6.57 460.74 8.84 460.74L34.44 460.74L34.44 170.61L25.9 170.61C11.77 170.6 0.32 159.14 0.3 145.01L0.3 59.68C0.32 45.55 11.77 34.09 25.9 34.08L72.42 34.08C106.1 33.46 139.2 25.24 169.25 10.04C197.33 -3.35 229.94 -3.35 258.02 10.04C288.07 25.24 321.17 33.46 354.85 34.08L401.38 34.08C415.51 34.09 426.96 45.55 426.97 59.68L426.97 145.01C426.96 159.14 415.51 170.6 401.38 170.61L392.84 170.61L392.84 187.68L444.04 187.68C458.17 187.69 469.63 199.15 469.64 213.28ZM25.9 153.54L72.42 153.54C108.66 154.15 144.3 162.95 176.66 179.27C178.64 180.22 180.7 180.99 182.74 181.78C184.91 182.62 187.1 183.34 189.3 184C189.98 184.21 190.67 184.4 191.36 184.59C193.19 185.09 195.04 185.53 196.89 185.91C198.28 186.19 199.67 186.4 201.07 186.61C202.39 186.81 203.7 187.03 205.02 187.17C210.75 187.74 216.52 187.74 222.25 187.17C223.57 187.03 224.88 186.81 226.19 186.61C227.6 186.4 228.99 186.19 230.39 185.91C232.24 185.53 234.08 185.09 235.92 184.59C236.61 184.4 237.29 184.21 237.97 184C240.18 183.34 242.37 182.62 244.54 181.78C246.44 181.04 248.34 180.32 250.19 179.45C250.33 179.38 250.47 179.34 250.61 179.27C279.2 165 310.29 156.4 342.15 153.95C346.4 153.68 350.64 153.54 354.85 153.54L401.38 153.54C406.09 153.54 409.9 149.72 409.91 145.01L409.91 59.68C409.9 54.97 406.09 51.15 401.38 51.15L354.85 51.15C318.61 50.53 282.98 41.74 250.61 25.42C227.23 14.25 200.05 14.25 176.66 25.42C144.3 41.74 108.66 50.53 72.42 51.15L25.9 51.15C21.19 51.15 17.38 54.97 17.37 59.68L17.37 145.01C17.38 149.72 21.19 153.54 25.9 153.55L25.9 153.54ZM273.72 452.2C271.81 455.26 269.61 458.12 267.14 460.75L375.77 460.75L375.77 255.95L307.5 255.95C300.26 255.93 293.37 252.82 288.56 247.41L256.3 247.41C256.27 258.23 249.44 267.85 239.24 271.44L239.24 290.08C239.24 294.79 235.42 298.61 230.7 298.61C225.99 298.61 222.17 294.79 222.17 290.08L222.17 273.01L205.1 273.01L205.1 290.08C205.1 294.79 201.28 298.61 196.57 298.61C191.86 298.61 188.04 294.79 188.04 290.08L188.04 271.44C177.84 267.85 171 258.23 170.97 247.41L170.97 195.37C170.41 195.11 169.81 194.92 169.25 194.66C139.2 179.45 106.1 171.23 72.42 170.61L51.5 170.61L51.5 196.21L85.64 196.21C90.35 196.21 94.17 200.03 94.17 204.75C94.17 209.46 90.35 213.28 85.64 213.28L51.5 213.28L51.5 230.35L85.64 230.35C90.35 230.35 94.17 234.17 94.17 238.88C94.17 243.59 90.35 247.41 85.64 247.41L51.5 247.41L51.5 264.48L85.64 264.48C90.35 264.48 94.17 268.3 94.17 273.01C94.17 277.72 90.35 281.55 85.64 281.55L51.5 281.55L51.5 460.75L160.14 460.75C150.66 450.75 145.37 437.5 145.37 423.72L145.37 349.81C145.38 340.39 153.02 332.76 162.44 332.75L264.84 332.75C274.26 332.76 281.89 340.39 281.9 349.81L281.9 350.58C308.08 354.99 326.54 378.68 324.4 405.14C322.27 431.6 300.26 452.04 273.72 452.2ZM307.5 401.55C307.75 385.79 297.17 371.9 281.9 367.96L281.9 423.72C281.9 427.28 281.55 430.83 280.85 434.32C296.23 430.86 307.25 417.32 307.5 401.55ZM264.84 349.81L162.44 349.81L162.44 423.72C162.46 444.16 179.02 460.72 199.46 460.75L227.81 460.75C242.06 460.7 255.02 452.48 261.12 439.6L261.13 439.55C263.53 434.62 264.8 429.21 264.84 423.72L264.84 349.81ZM196.57 255.94L230.7 255.94C235.41 255.94 239.23 252.12 239.24 247.41L239.24 201.43C239.14 201.45 239.05 201.46 238.96 201.48C235.13 202.46 231.24 203.22 227.32 203.74L227.31 203.75C226.98 203.79 226.66 203.87 226.34 203.91C226.02 203.95 225.7 204.04 225.38 204.08L225.33 204.08C217.58 204.96 209.76 204.97 202.01 204.09L201.9 204.09C201.56 204.05 201.22 203.95 200.88 203.91C200.65 203.88 200.43 203.83 200.21 203.79C199.56 203.71 198.91 203.56 198.26 203.46C194.92 202.97 191.6 202.31 188.32 201.48C188.23 201.46 188.13 201.45 188.04 201.43L188.04 247.41C188.04 252.12 191.86 255.94 196.57 255.94ZM281.9 230.35L281.9 213.28L256.3 213.28L256.3 230.35L281.9 230.35ZM307.5 187.68L375.77 187.68L375.77 170.61L354.85 170.61C321.17 171.23 288.07 179.45 258.02 194.65C257.47 194.92 256.87 195.11 256.3 195.37L256.3 196.21L288.56 196.21C293.37 190.8 300.26 187.7 307.5 187.68ZM18.83 477.81C22.46 488.03 32.13 494.87 42.97 494.88L384.31 494.88C395.15 494.87 404.82 488.03 408.45 477.81L18.83 477.81ZM452.57 230.35L452.57 213.28C452.57 208.57 448.75 204.75 444.04 204.74L307.5 204.74C304.34 204.77 301.45 206.56 300.02 209.39C299.83 209.77 299.66 210.16 299.52 210.56C299.19 211.43 299 212.35 298.97 213.28L298.97 230.34C299 231.28 299.19 232.19 299.52 233.06C299.66 233.47 299.83 233.86 300.02 234.23C301.45 237.06 304.34 238.85 307.5 238.88L444.04 238.88C448.75 238.88 452.57 235.06 452.57 230.35Z" />
			</g>
		</g>
	</g>
</svg>