<svg xmlns="http://www.w3.org/2000/svg" viewBox="0 0 260 500" width="260" height="500">
	<style>
		tspan { white-space:pre }
		.shp0 { fill: #e04e1d } 
	</style>
	<g id="Layer">
		<path id="Layer" fill-rule="evenodd" class="shp0" d="M259.17 24.5L259.17 475.5C259.17 489.01 248.17 500 234.67 500L25.33 500C11.82 500 0.83 489.01 0.83 475.5L0.83 24.5C0.83 10.99 11.82 0 25.33 0L234.67 0C248.17 0 259.17 10.99 259.17 24.5ZM242.5 308.33L17.5 308.33L17.5 475.5C17.5 479.82 21.01 483.33 25.33 483.33L234.67 483.33C238.98 483.33 242.5 479.82 242.5 475.5L242.5 308.33ZM242.5 291.67L242.5 24.5C242.5 20.18 238.99 16.67 234.67 16.67L25.33 16.67C21.02 16.67 17.5 20.18 17.5 24.5L17.5 291.67L242.5 291.67Z" />
		<path id="Layer" class="shp0" d="M34.17 175C29.56 175 25.83 178.72 25.83 183.33C25.83 187.94 29.56 191.67 34.17 191.67C38.77 191.67 42.5 195.4 42.5 200L42.5 250C42.5 254.6 38.77 258.33 34.17 258.33C29.56 258.33 25.83 262.06 25.83 266.67C25.83 271.27 29.56 275 34.17 275C47.95 275 59.17 263.78 59.17 250L59.17 200C59.17 186.22 47.95 175 34.17 175Z" />
		<path id="Layer" class="shp0" d="M34.17 408.33C29.56 408.33 25.83 412.06 25.83 416.67C25.83 421.27 29.56 425 34.17 425C47.95 425 59.17 413.78 59.17 400L59.17 350C59.17 336.22 47.95 325 34.17 325C29.56 325 25.83 328.72 25.83 333.33C25.83 337.94 29.56 341.67 34.17 341.67C38.77 341.67 42.5 345.4 42.5 350L42.5 400C42.5 404.6 38.77 408.33 34.17 408.33Z" />
		<path id="Layer" class="shp0" d="M134.17 50L117.5 50C112.89 50 109.17 53.72 109.17 58.33C109.17 62.94 112.89 66.67 117.5 66.67L134.17 66.67C138.77 66.67 142.5 62.94 142.5 58.33C142.5 53.72 138.77 50 134.17 50Z" />
	</g>
</svg>