<svg xmlns="http://www.w3.org/2000/svg" viewBox="0 0 500 434" width="500" height="434">
	<style>
		tspan { white-space:pre }
		.shp0 { fill: #e04e1d } 
	</style>
	<g id="Layer">
		<path id="Layer" fill-rule="evenodd" class="shp0" d="M375 108.67L375 325.33C375 339.12 363.78 350.33 350 350.33C336.22 350.33 325 339.12 325 325.33L325 108.67C325 94.88 336.22 83.67 350 83.67C363.78 83.67 375 94.88 375 108.67ZM358.33 108.67C358.33 104.07 354.6 100.33 350 100.33C345.4 100.33 341.67 104.07 341.67 108.67L341.67 325.33C341.67 329.93 345.4 333.67 350 333.67C354.6 333.67 358.33 329.93 358.33 325.33L358.33 108.67Z" />
		<path id="Layer" fill-rule="evenodd" class="shp0" d="M291.67 108.67L291.67 325.33C291.67 339.12 280.45 350.33 266.67 350.33C252.88 350.33 241.67 339.12 241.67 325.33L241.67 108.67C241.67 94.88 252.88 83.67 266.67 83.67C280.45 83.67 291.67 94.88 291.67 108.67ZM275 108.67C275 104.07 271.27 100.33 266.67 100.33C262.07 100.33 258.33 104.07 258.33 108.67L258.33 325.33C258.33 329.93 262.07 333.67 266.67 333.67C271.27 333.67 275 329.93 275 325.33L275 108.67Z" />
		<path id="Layer" fill-rule="evenodd" class="shp0" d="M125 108.67L125 325.33C125 339.12 113.78 350.33 100 350.33C86.22 350.33 75 339.12 75 325.33L75 108.67C75 94.88 86.22 83.67 100 83.67C113.78 83.67 125 94.88 125 108.67ZM108.33 108.67C108.33 104.07 104.6 100.33 100 100.33C95.4 100.33 91.67 104.07 91.67 108.67L91.67 325.33C91.67 329.93 95.4 333.67 100 333.67C104.6 333.67 108.33 329.93 108.33 325.33L108.33 108.67Z" />
		<path id="Layer" fill-rule="evenodd" class="shp0" d="M208.33 108.67L208.33 325.33C208.33 339.12 197.12 350.33 183.33 350.33C169.55 350.33 158.33 339.12 158.33 325.33L158.33 108.67C158.33 94.88 169.55 83.67 183.33 83.67C197.12 83.67 208.33 94.88 208.33 108.67ZM191.67 108.67C191.67 104.07 187.93 100.33 183.33 100.33C178.73 100.33 175 104.07 175 108.67L175 325.33C175 329.93 178.73 333.67 183.33 333.67C187.93 333.67 191.67 329.93 191.67 325.33L191.67 108.67Z" />
		<path id="Layer" fill-rule="evenodd" class="shp0" d="M458.33 87.83L458.33 83.67L450 83.67L450 108.67L425 108.67L425 325.33L450 325.33L450 333.67L500 333.67L500 375.33L450 375.33L450 383.67L425 383.67L425 400.33C425 418.72 410.05 433.67 391.67 433.67C373.28 433.67 358.33 418.72 358.33 400.33L358.33 392C358.33 387.4 354.6 383.67 350 383.67C345.4 383.67 341.67 387.4 341.67 392L341.67 400.33C341.67 418.72 326.72 433.67 308.33 433.67C289.95 433.67 275 418.72 275 400.33L275 392C275 387.4 271.27 383.67 266.67 383.67C262.07 383.67 258.33 387.4 258.33 392L258.33 400.33C258.33 418.72 243.38 433.67 225 433.67C206.62 433.67 191.67 418.72 191.67 400.33L191.67 392C191.67 387.4 187.93 383.67 183.33 383.67C178.73 383.67 175 387.4 175 392L175 400.33C175 418.72 160.05 433.67 141.67 433.67C123.28 433.67 108.33 418.72 108.33 400.33L108.33 392C108.33 387.4 104.6 383.67 100 383.67C95.4 383.67 91.67 387.4 91.67 392L91.67 400.33C91.67 418.72 76.72 433.67 58.33 433.67C39.95 433.67 25 418.72 25 400.33L25 383.67L0 383.67L0 325.33L25 325.33L25 108.67L0 108.67L0 50.33L25 50.33L25 33.67C25 15.28 39.95 0.33 58.33 0.33C76.72 0.33 91.67 15.28 91.67 33.67L91.67 42C91.67 46.6 95.4 50.33 100 50.33C104.6 50.33 108.33 46.6 108.33 42L108.33 33.67C108.33 15.28 123.28 0.33 141.67 0.33C160.05 0.33 175 15.28 175 33.67L175 42C175 46.6 178.73 50.33 183.33 50.33C187.93 50.33 191.67 46.6 191.67 42L191.67 33.67C191.67 15.28 206.62 0.33 225 0.33C243.38 0.33 258.33 15.28 258.33 33.67L258.33 42C258.33 46.6 262.07 50.33 266.67 50.33C271.27 50.33 275 46.6 275 42L275 33.67C275 15.28 289.95 0.33 308.33 0.33C326.72 0.33 341.67 15.28 341.67 33.67L341.67 42C341.67 46.6 345.4 50.33 350 50.33C354.6 50.33 358.33 46.6 358.33 42L358.33 33.67C358.33 15.28 373.28 0.33 391.67 0.33C410.05 0.33 425 15.28 425 33.67L425 42L450 42L450 67L458.33 67L458.33 62.83C458.33 51.34 467.67 42 479.17 42C490.66 42 500 51.34 500 62.83L500 87.83C500 99.32 490.66 108.67 479.17 108.67C467.67 108.67 458.33 99.32 458.33 87.83ZM25 92L25 67L16.67 67L16.67 92L25 92ZM25 367L25 342L16.67 342L16.67 367L25 367ZM450 350.33L450 358.67L483.33 358.67L483.33 350.33L450 350.33ZM425 342L425 367L433.33 367L433.33 342L425 342ZM408.33 33.67C408.33 24.47 400.86 17 391.67 17C382.47 17 375 24.47 375 33.67L375 42C375 55.78 363.78 67 350 67C336.22 67 325 55.78 325 42L325 33.67C325 24.47 317.52 17 308.33 17C299.14 17 291.67 24.47 291.67 33.67L291.67 42C291.67 55.78 280.45 67 266.67 67C252.88 67 241.67 55.78 241.67 42L241.67 33.67C241.67 24.47 234.19 17 225 17C215.81 17 208.33 24.47 208.33 33.67L208.33 42C208.33 55.78 197.12 67 183.33 67C169.55 67 158.33 55.78 158.33 42L158.33 33.67C158.33 24.47 150.86 17 141.67 17C132.47 17 125 24.47 125 33.67L125 42C125 55.78 113.78 67 100 67C86.22 67 75 55.78 75 42L75 33.67C75 24.47 67.52 17 58.33 17C49.14 17 41.67 24.47 41.67 33.67L41.67 400.33C41.67 409.52 49.14 417 58.33 417C67.52 417 75 409.52 75 400.33L75 392C75 378.22 86.22 367 100 367C113.78 367 125 378.22 125 392L125 400.33C125 409.52 132.47 417 141.67 417C150.86 417 158.33 409.52 158.33 400.33L158.33 392C158.33 378.22 169.55 367 183.33 367C197.12 367 208.33 378.22 208.33 392L208.33 400.33C208.33 409.52 215.81 417 225 417C234.19 417 241.67 409.52 241.67 400.33L241.67 392C241.67 378.22 252.88 367 266.67 367C280.45 367 291.67 378.22 291.67 392L291.67 400.33C291.67 409.52 299.14 417 308.33 417C317.52 417 325 409.52 325 400.33L325 392C325 378.22 336.22 367 350 367C363.78 367 375 378.22 375 392L375 400.33C375 409.52 382.47 417 391.67 417C400.86 417 408.33 409.52 408.33 400.33L408.33 33.67ZM433.33 58.67L425 58.67L425 92L433.33 92L433.33 58.67ZM475 87.83C475 90.12 476.87 92 479.17 92C481.46 92 483.33 90.12 483.33 87.83L483.33 62.83C483.33 60.54 481.46 58.67 479.17 58.67C476.87 58.67 475 60.54 475 62.83L475 87.83Z" />
	</g>
</svg>