<svg xmlns="http://www.w3.org/2000/svg" viewBox="0 0 504 487" width="504" height="487">
	<style>
		tspan { white-space:pre }
		.shp0 { fill: #e04e1d } 
	</style>
	<g id="Layer">
		<g id="Layer">
			<g id="Layer">
				<path id="Layer" fill-rule="evenodd" class="shp0" d="M503.6 142.97L503.6 428.35C503.6 446.82 488.5 461.93 470.03 461.93L461.64 461.93L461.64 478.71C461.64 483.75 458.28 487.11 453.24 487.11C448.21 487.11 444.85 483.75 444.85 478.71L444.85 461.93L58.75 461.93L58.75 478.71C58.75 483.75 55.4 487.11 50.36 487.11C45.32 487.11 41.97 483.75 41.97 478.71L41.97 461.93L33.57 461.93C15.11 461.93 0 446.82 0 428.35L0 142.97C0 124.51 15.11 109.4 33.57 109.4L236.3 109.4L169.55 13.71C167.03 9.52 167.87 4.48 171.23 1.96C175.42 -0.55 180.46 0.29 182.98 3.64L251.68 102.12L312.24 4.48C314.75 0.29 319.79 -0.55 323.99 1.96C328.18 4.48 329.02 9.52 326.5 13.72L267.16 109.4L470.03 109.4C488.5 109.4 503.61 124.51 503.6 142.97ZM486.82 142.97C486.82 133.74 479.27 126.19 470.03 126.19L33.57 126.19C24.34 126.19 16.79 133.74 16.79 142.97L16.79 428.35C16.79 437.58 24.34 445.14 33.57 445.14L470.03 445.14C479.27 445.14 486.82 437.58 486.82 428.35L486.82 142.97Z" />
				<path id="Layer" fill-rule="evenodd" class="shp0" d="M369.31 193.33L369.31 377.99C369.31 405.69 346.65 428.35 318.95 428.35L83.93 428.35C56.23 428.35 33.57 405.69 33.57 377.99L33.57 193.34C33.57 165.64 56.24 142.97 83.93 142.97L318.95 142.97C346.65 142.97 369.31 165.64 369.31 193.33ZM352.52 377.99L352.52 193.33C352.52 174.87 337.42 159.76 318.95 159.76L83.93 159.76C65.47 159.76 50.36 174.87 50.36 193.33L50.36 377.99C50.36 396.46 65.47 411.56 83.93 411.56L318.95 411.56C337.42 411.56 352.52 396.46 352.52 377.99L352.52 377.99Z" />
				<path id="Layer" class="shp0" d="M461.64 184.94L394.49 184.94C389.45 184.94 386.1 188.3 386.1 193.33C386.1 198.37 389.45 201.73 394.49 201.73L461.64 201.73C466.67 201.73 470.03 198.37 470.03 193.33C470.03 188.3 466.67 184.94 461.64 184.94Z" />
				<path id="Layer" class="shp0" d="M461.64 218.52L394.49 218.52C389.45 218.52 386.1 221.87 386.1 226.91C386.1 231.94 389.45 235.3 394.49 235.3L461.64 235.3C466.67 235.3 470.03 231.94 470.03 226.91C470.03 221.87 466.67 218.52 461.64 218.52Z" />
				<path id="Layer" class="shp0" d="M461.64 252.09L394.49 252.09C389.45 252.09 386.1 255.45 386.1 260.48C386.1 265.52 389.45 268.87 394.49 268.87L461.64 268.87C466.67 268.87 470.03 265.52 470.03 260.48C470.03 255.45 466.67 252.09 461.64 252.09Z" />
				<path id="Layer" fill-rule="evenodd" class="shp0" d="M470.03 294.06L470.03 361.2C470.03 366.24 466.67 369.6 461.64 369.6L394.49 369.6C389.45 369.6 386.1 366.24 386.1 361.2L386.1 294.06C386.1 289.02 389.45 285.66 394.49 285.66L461.64 285.66C466.67 285.66 470.03 289.02 470.03 294.06ZM453.25 302.45L402.88 302.45L402.88 352.81L453.25 352.81L453.25 302.45Z" />
				<path id="Layer" class="shp0" d="M103.24 179.07L69.67 212.64C66.31 216 66.31 221.03 69.67 224.39C71.34 226.07 73.02 226.91 75.54 226.91C78.06 226.91 79.74 226.07 81.42 224.39L114.99 190.82C118.35 187.46 118.35 182.42 114.99 179.07C111.63 175.71 106.6 175.71 103.24 179.07Z" />
				<path id="Layer" class="shp0" d="M78.06 246.21L69.67 254.61C66.31 257.96 66.31 263 69.67 266.36C71.34 268.04 73.02 268.88 75.54 268.88C78.06 268.88 79.74 268.04 81.42 266.36L89.81 257.96C93.17 254.61 93.17 249.57 89.81 246.21C86.45 242.86 81.42 242.86 78.06 246.21Z" />
				<path id="Layer" class="shp0" d="M153.6 170.67L128.42 195.85C125.06 199.21 125.06 204.25 128.42 207.6C130.1 209.28 131.78 210.12 134.29 210.12C136.81 210.12 138.49 209.28 140.17 207.6L165.35 182.42C168.71 179.07 168.71 174.03 165.35 170.67C161.99 167.31 156.96 167.32 153.6 170.67Z" />
				<path id="Layer" class="shp0" d="M109.11 218.52C104.08 218.52 100.72 221.87 100.72 226.91C100.72 231.94 104.08 235.3 109.11 235.3C114.15 235.3 117.51 231.94 117.51 226.91C117.51 221.87 114.15 218.52 109.11 218.52Z" />
			</g>
		</g>
	</g>
</svg>