<svg xmlns="http://www.w3.org/2000/svg" viewBox="0 0 504 504" width="504" height="504">
	<style>
		tspan { white-space:pre }
		.shp0 { fill: #e04e1d } 
	</style>
	<path id="Layer" fill-rule="evenodd" class="shp0" d="M41.97 235.32C18.8 235.29 0.03 216.52 0 193.36L0 26.49C-0.19 13.93 8.66 3.04 20.99 0.66C28.29 -0.58 35.78 1.47 41.44 6.25C47.1 11.04 50.36 18.07 50.36 25.48L50.36 184.93L76.14 184.93C80.39 151.39 108.9 126.23 142.71 126.17L360.94 126.17C361.06 126.17 361.16 126.25 361.29 126.25C361.89 126.25 362.5 126.21 363.1 126.21C396.11 127.26 423.43 152.19 427.49 184.96L453.25 184.96L453.25 26.49C453.06 13.93 461.9 3.04 474.23 0.66C481.54 -0.58 489.02 1.47 494.68 6.25C500.34 11.04 503.61 18.07 503.61 25.48L503.61 193.36C503.58 216.52 484.81 235.29 461.64 235.32L428.07 235.32L428.07 403.19C428.07 417.1 416.8 428.37 402.89 428.37L310.56 428.37L310.56 478.73C310.56 492.64 299.29 503.91 285.38 503.91L100.72 503.91C86.82 503.91 75.54 492.64 75.54 478.73L75.54 235.32L41.97 235.32ZM293.77 352.83L92.33 352.83L92.33 394.8L293.77 394.8L293.77 352.83ZM293.77 411.58L92.33 411.58L92.33 478.73C92.33 483.37 96.09 487.12 100.72 487.12L285.38 487.12C290.02 487.12 293.77 483.37 293.77 478.73L293.77 411.58ZM411.28 235.32L310.56 235.32L310.56 411.58L402.89 411.58C407.52 411.58 411.28 407.82 411.28 403.19L411.28 235.32ZM470.04 184.96C470.04 194.23 462.52 201.75 453.25 201.75L310.56 201.75L310.56 218.54L461.64 218.54C475.55 218.54 486.82 207.26 486.82 193.36L486.82 25.48C486.8 23.02 485.71 20.7 483.83 19.11C481.94 17.49 479.42 16.81 476.97 17.26C472.73 18.27 469.82 22.14 470.04 26.49L470.04 184.96ZM410.54 184.96C406.6 161.32 386.51 143.75 362.56 142.99C349.27 142.64 336.42 147.76 327.01 157.15C319.25 164.69 313.92 174.37 311.7 184.96L410.54 184.96ZM142.69 142.99C114.89 143.02 92.36 165.55 92.33 193.36L92.33 336.04L293.77 336.04L293.77 195.78C293.77 195.13 293.87 194.5 293.87 193.85C293.87 193.67 293.77 193.53 293.77 193.36C293.81 193.07 293.87 192.79 293.94 192.52C294.82 174.57 302.46 157.62 315.34 145.09C316.11 144.34 316.93 143.7 317.72 142.99L142.69 142.99ZM16.79 193.36C16.79 207.26 28.06 218.54 41.97 218.54L75.54 218.54L75.54 201.75L50.36 201.75C41.09 201.75 33.58 194.23 33.58 184.96L33.58 25.48C33.56 23.02 32.46 20.7 30.58 19.11C28.69 17.49 26.17 16.81 23.72 17.26C19.49 18.27 16.57 22.14 16.79 26.49L16.79 193.36Z" />
</svg>