<svg xmlns="http://www.w3.org/2000/svg" viewBox="0 0 496 427" width="496" height="427">
	<style>
		tspan { white-space:pre }
		.shp0 { fill: #e04e1d } 
	</style>
	<g id="Layer">
		<g id="Layer">
			<g id="Layer">
				<path id="Layer" fill-rule="evenodd" class="shp0" d="M332.94 341.61C332.94 388.74 294.74 426.94 247.61 426.94C200.48 426.94 162.27 388.74 162.27 341.61C162.27 294.47 200.48 256.27 247.61 256.27C294.74 256.27 332.94 294.47 332.94 341.61ZM290.27 341.61C290.27 318.04 271.17 298.94 247.61 298.94C224.04 298.94 204.94 318.04 204.94 341.61C204.94 365.17 224.04 384.27 247.61 384.27C271.17 384.27 290.27 365.17 290.27 341.61Z" />
				<path id="Layer" class="shp0" d="M126.93 220.93C118.6 229.26 118.6 242.76 126.93 251.1C135.26 259.43 148.77 259.43 157.1 251.1C207.09 201.1 288.13 201.1 338.13 251.1C346.46 259.43 359.97 259.43 368.3 251.1C376.63 242.76 376.63 229.26 368.3 220.93C301.64 154.27 193.58 154.27 126.93 220.93Z" />
				<path id="Layer" class="shp0" d="M66.59 160.59C58.26 168.92 58.26 182.43 66.59 190.76C74.92 199.09 88.43 199.09 96.76 190.76C180.07 107.44 315.15 107.44 398.45 190.75C406.78 199.09 420.29 199.09 428.62 190.76C436.95 182.43 436.95 168.92 428.62 160.59C328.66 60.61 166.57 60.61 66.59 160.59Z" />
				<path id="Layer" class="shp0" d="M488.96 100.25C355.66 -33.06 139.55 -33.06 6.25 100.25C-2.08 108.58 -2.08 122.09 6.25 130.42C14.58 138.75 28.09 138.75 36.42 130.42C153.06 13.78 342.15 13.78 458.79 130.42C467.12 138.75 480.63 138.75 488.96 130.42C497.29 122.09 497.29 108.58 488.96 100.25Z" />
			</g>
		</g>
	</g>
</svg>